<svg id="visual" viewBox="0 0 900 600" width="900" height="600" xmlns="http://www.w3.org/2000/svg" xmlns:xlink="http://www.w3.org/1999/xlink" version="1.1"><path d="M0 169L13.7 154C27.3 139 54.7 109 82 107C109.3 105 136.7 131 163.8 135C191 139 218 121 245.2 110C272.3 99 299.7 95 327 91C354.3 87 381.7 83 409 83C436.3 83 463.7 87 491 85C518.3 83 545.7 75 573 85C600.3 95 627.7 123 654.8 121C682 119 709 87 736.2 71C763.3 55 790.7 55 818 65C845.3 75 872.7 95 886.3 105L900 115L900 0L886.3 0C872.7 0 845.3 0 818 0C790.7 0 763.3 0 736.2 0C709 0 682 0 654.8 0C627.7 0 600.3 0 573 0C545.7 0 518.3 0 491 0C463.7 0 436.3 0 409 0C381.7 0 354.3 0 327 0C299.7 0 272.3 0 245.2 0C218 0 191 0 163.8 0C136.7 0 109.3 0 82 0C54.7 0 27.3 0 13.7 0L0 0Z" fill="#6198ff"></path><path d="M0 235L13.7 222C27.3 209 54.7 183 82 179C109.3 175 136.7 193 163.8 199C191 205 218 199 245.2 196C272.3 193 299.7 193 327 186C354.3 179 381.7 165 409 168C436.3 171 463.7 191 491 192C518.3 193 545.7 175 573 173C600.3 171 627.7 185 654.8 181C682 177 709 155 736.2 151C763.3 147 790.7 161 818 169C845.3 177 872.7 179 886.3 180L900 181L900 113L886.3 103C872.7 93 845.3 73 818 63C790.7 53 763.3 53 736.2 69C709 85 682 117 654.8 119C627.7 121 600.3 93 573 83C545.7 73 518.3 81 491 83C463.7 85 436.3 81 409 81C381.7 81 354.3 85 327 89C299.7 93 272.3 97 245.2 108C218 119 191 137 163.8 133C136.7 129 109.3 103 82 105C54.7 107 27.3 137 13.7 152L0 167Z" fill="#3c80ff"></path><path d="M0 295L13.7 287C27.3 279 54.7 263 82 260C109.3 257 136.7 267 163.8 268C191 269 218 261 245.2 259C272.3 257 299.7 261 327 253C354.3 245 381.7 225 409 222C436.3 219 463.7 233 491 234C518.3 235 545.7 223 573 226C600.3 229 627.7 247 654.8 250C682 253 709 241 736.2 236C763.3 231 790.7 233 818 239C845.3 245 872.7 255 886.3 260L900 265L900 179L886.3 178C872.7 177 845.3 175 818 167C790.7 159 763.3 145 736.2 149C709 153 682 175 654.8 179C627.7 183 600.3 169 573 171C545.7 173 518.3 191 491 190C463.7 189 436.3 169 409 166C381.7 163 354.3 177 327 184C299.7 191 272.3 191 245.2 194C218 197 191 203 163.8 197C136.7 191 109.3 173 82 177C54.7 181 27.3 207 13.7 220L0 233Z" fill="#0066ff"></path><path d="M0 403L13.7 406C27.3 409 54.7 415 82 412C109.3 409 136.7 397 163.8 401C191 405 218 425 245.2 429C272.3 433 299.7 421 327 423C354.3 425 381.7 441 409 453C436.3 465 463.7 473 491 450C518.3 427 545.7 373 573 362C600.3 351 627.7 383 654.8 414C682 445 709 475 736.2 463C763.3 451 790.7 397 818 395C845.3 393 872.7 443 886.3 468L900 493L900 263L886.3 258C872.7 253 845.3 243 818 237C790.7 231 763.3 229 736.2 234C709 239 682 251 654.8 248C627.7 245 600.3 227 573 224C545.7 221 518.3 233 491 232C463.7 231 436.3 217 409 220C381.7 223 354.3 243 327 251C299.7 259 272.3 255 245.2 257C218 259 191 267 163.8 266C136.7 265 109.3 255 82 258C54.7 261 27.3 277 13.7 285L0 293Z" fill="#0059dd"></path><path d="M0 601L13.7 601C27.3 601 54.7 601 82 601C109.3 601 136.7 601 163.8 601C191 601 218 601 245.2 601C272.3 601 299.7 601 327 601C354.3 601 381.7 601 409 601C436.3 601 463.7 601 491 601C518.3 601 545.7 601 573 601C600.3 601 627.7 601 654.8 601C682 601 709 601 736.2 601C763.3 601 790.7 601 818 601C845.3 601 872.7 601 886.3 601L900 601L900 491L886.3 466C872.7 441 845.3 391 818 393C790.7 395 763.3 449 736.2 461C709 473 682 443 654.8 412C627.7 381 600.3 349 573 360C545.7 371 518.3 425 491 448C463.7 471 436.3 463 409 451C381.7 439 354.3 423 327 421C299.7 419 272.3 431 245.2 427C218 423 191 403 163.8 399C136.7 395 109.3 407 82 410C54.7 413 27.3 407 13.7 404L0 401Z" fill="#004cbb"></path></svg>